<svg width="1000" height="1000" viewBox="0 0 1000 1000" fill="none" xmlns="http://www.w3.org/2000/svg">
<g clip-path="url(#clip0_1_198)">
<g clip-path="url(#clip1_1_198)">
<g clip-path="url(#clip2_1_198)">
<path d="M0.215698 500C0.215698 223.977 223.977 0.215698 500 0.215698C776.023 0.215698 999.784 223.977 999.784 500C999.784 776.023 776.023 999.784 500 999.784C223.977 999.784 0.215698 776.023 0.215698 500ZM500 993.388C772.49 993.388 993.388 772.49 993.388 500C993.388 227.51 772.49 6.6122 500 6.60928C227.51 6.60928 6.6122 227.507 6.60928 500C6.60928 772.49 227.507 993.388 500 993.388Z" fill="black"/>
<path d="M499.999 979.792C764.981 979.792 979.792 764.981 979.792 499.999C979.792 235.017 764.981 20.207 499.999 20.207C235.017 20.207 20.207 235.017 20.207 499.999C20.207 764.981 235.017 979.792 499.999 979.792Z" fill="black"/>
<g clip-path="url(#clip3_1_198)">
<g clip-path="url(#clip4_1_198)">
<g clip-path="url(#clip5_1_198)">
<g clip-path="url(#clip6_1_198)">
<g clip-path="url(#clip7_1_198)">
<g clip-path="url(#clip8_1_198)">
<g clip-path="url(#clip9_1_198)">
<path d="M209.397 657.775C205.293 657.775 201.753 656.719 198.777 654.607C195.789 652.506 193.458 649.513 191.784 645.628C190.121 641.743 189.289 637.147 189.289 631.84C189.289 626.532 190.121 621.936 191.784 618.051C193.458 614.167 195.789 611.168 198.777 609.056C201.753 606.955 205.293 605.905 209.397 605.905C212.078 605.905 214.513 606.425 216.701 607.464C218.89 608.504 220.504 609.926 221.544 611.732H224.006V586.864H233.034V656.461H224.006V651.947H221.544C220.504 653.698 218.89 655.104 216.701 656.166C214.513 657.238 212.078 657.775 209.397 657.775ZM211.285 649.321C215.443 649.321 218.66 647.789 220.936 644.725C223.201 641.661 224.334 637.366 224.334 631.84C224.334 626.313 223.201 622.018 220.936 618.954C218.66 615.89 215.443 614.358 211.285 614.358C207.181 614.358 203.996 615.89 201.731 618.954C199.455 622.018 198.317 626.313 198.317 631.84C198.317 637.366 199.455 641.661 201.731 644.725C203.996 647.789 207.181 649.321 211.285 649.321ZM249.366 615.671V607.218H268.571V610.829H271.033C272.018 609.242 273.359 608.022 275.055 607.169C276.751 606.326 278.693 605.905 280.882 605.905C284.821 605.905 287.94 607.284 290.238 610.041C292.536 612.81 293.685 616.602 293.685 621.416V628.557H284.329V622.73C284.329 617.203 282.086 614.44 277.599 614.44C274.754 614.44 272.631 615.71 271.23 618.248C269.841 620.798 269.146 624.59 269.146 629.624V648.008H284.411V656.461H250.843V648.008H260.118V615.671H249.366ZM313.711 634.794V626.833H343.339L340.303 631.101C340.303 625.575 339.312 621.362 337.331 618.462C335.373 615.562 332.5 614.112 328.714 614.112C324.61 614.112 321.415 615.628 319.128 618.659C316.83 621.701 315.681 625.958 315.681 631.429C315.681 637.284 316.83 641.77 319.128 644.889C321.415 648.008 324.698 649.567 328.977 649.567C331.767 649.567 334.202 648.867 336.281 647.466C338.349 646.076 340.1 644.041 341.534 641.36H349.987C349.166 644.752 347.782 647.68 345.834 650.142C343.897 652.604 341.49 654.492 338.612 655.805C335.745 657.118 332.533 657.775 328.977 657.775C324.38 657.775 320.425 656.735 317.109 654.656C313.804 652.577 311.276 649.567 309.525 645.628C307.774 641.688 306.899 636.955 306.899 631.429C306.899 626.177 307.785 621.646 309.558 617.838C311.342 614.041 313.875 611.103 317.158 609.023C320.441 606.944 324.293 605.905 328.714 605.905C332.938 605.905 336.527 606.89 339.482 608.859C342.425 610.829 344.696 613.685 346.294 617.428C347.881 621.181 348.674 625.712 348.674 631.019C348.674 631.621 348.658 632.25 348.625 632.907C348.603 633.563 348.564 634.192 348.51 634.794H313.711ZM365.4 641.36H373.772C374.538 643.932 375.933 645.901 377.957 647.269C379.982 648.637 382.581 649.321 385.754 649.321C389.037 649.321 391.554 648.73 393.305 647.548C395.056 646.377 395.931 644.698 395.931 642.509C395.931 641.032 395.22 639.801 393.797 638.816C392.375 637.831 390.268 637.147 387.478 636.764L381.487 635.861C376.124 635.04 372.158 633.454 369.586 631.101C367.014 628.748 365.729 625.465 365.729 621.252C365.729 616.492 367.496 612.744 371.03 610.008C374.554 607.273 379.407 605.905 385.59 605.905C391.882 605.905 396.861 607.437 400.527 610.501C404.193 613.565 406.136 617.833 406.355 623.304H398.147C397.381 620.404 395.931 618.188 393.797 616.656C391.664 615.124 388.873 614.358 385.426 614.358C381.979 614.358 379.325 614.944 377.465 616.115C375.605 617.296 374.674 618.982 374.674 621.17C374.674 622.648 375.386 623.879 376.808 624.863C378.231 625.848 380.337 626.532 383.128 626.915L389.119 627.818C394.536 628.639 398.519 630.226 401.069 632.578C403.608 634.931 404.877 638.214 404.877 642.427C404.877 645.6 404.1 648.336 402.546 650.634C400.982 652.932 398.776 654.694 395.931 655.92C393.086 657.156 389.666 657.775 385.672 657.775C379.544 657.775 374.718 656.325 371.195 653.425C367.66 650.525 365.729 646.503 365.4 641.36ZM422.851 641.36H431.222C431.988 643.932 433.384 645.901 435.408 647.269C437.433 648.637 440.032 649.321 443.205 649.321C446.488 649.321 449.005 648.73 450.756 647.548C452.507 646.377 453.382 644.698 453.382 642.509C453.382 641.032 452.671 639.801 451.248 638.816C449.826 637.831 447.719 637.147 444.929 636.764L438.937 635.861C433.575 635.04 429.608 633.454 427.037 631.101C424.465 628.748 423.179 625.465 423.179 621.252C423.179 616.492 424.947 612.744 428.481 610.008C432.005 607.273 436.858 605.905 443.041 605.905C449.333 605.905 454.312 607.437 457.978 610.501C461.644 613.565 463.586 617.833 463.805 623.304H455.598C454.832 620.404 453.382 618.188 451.248 616.656C449.114 615.124 446.324 614.358 442.877 614.358C439.43 614.358 436.776 614.944 434.916 616.115C433.055 617.296 432.125 618.982 432.125 621.17C432.125 622.648 432.837 623.879 434.259 624.863C435.682 625.848 437.788 626.532 440.579 626.915L446.57 627.818C451.987 628.639 455.97 630.226 458.52 632.578C461.059 634.931 462.328 638.214 462.328 642.427C462.328 645.6 461.546 648.336 459.981 650.634C458.427 652.932 456.227 654.694 453.382 655.92C450.537 657.156 447.117 657.775 443.123 657.775C436.995 657.775 432.169 656.325 428.645 653.425C425.111 650.525 423.179 646.503 422.851 641.36ZM558.681 657.775C554.194 657.775 550.31 656.735 547.027 654.656C543.744 652.577 541.2 649.606 539.394 645.743C537.588 641.891 536.686 637.339 536.686 632.086C536.686 626.724 537.616 622.084 539.476 618.166C541.336 614.26 543.974 611.239 547.388 609.106C550.813 606.972 554.851 605.905 559.502 605.905C563.551 605.905 567.107 606.736 570.171 608.4C573.235 610.074 575.643 612.427 577.394 615.458C579.145 618.5 580.102 622.1 580.266 626.259H571.977C571.266 622.483 569.799 619.556 567.578 617.477C565.367 615.398 562.566 614.358 559.174 614.358C554.851 614.358 551.513 615.918 549.161 619.036C546.808 622.155 545.632 626.505 545.632 632.086C545.632 637.503 546.781 641.727 549.079 644.758C551.377 647.8 554.578 649.321 558.681 649.321C561.745 649.321 564.328 648.402 566.429 646.563C568.541 644.736 570.007 642.181 570.828 638.898H579.117C578.844 642.728 577.804 646.049 575.998 648.861C574.193 651.685 571.796 653.873 568.809 655.427C565.832 656.992 562.456 657.775 558.681 657.775ZM614.966 657.775C610.425 657.775 606.486 656.719 603.148 654.607C599.81 652.506 597.228 649.513 595.4 645.628C593.562 641.743 592.643 637.147 592.643 631.84C592.643 626.532 593.562 621.936 595.4 618.051C597.228 614.167 599.81 611.168 603.148 609.056C606.486 606.955 610.425 605.905 614.966 605.905C619.563 605.905 623.518 606.955 626.834 609.056C630.139 611.168 632.711 614.167 634.549 618.051C636.376 621.936 637.29 626.532 637.29 631.84C637.29 637.147 636.376 641.743 634.549 645.628C632.711 649.513 630.139 652.506 626.834 654.607C623.518 656.719 619.563 657.775 614.966 657.775ZM614.966 649.321C619.18 649.321 622.462 647.789 624.815 644.725C627.168 641.661 628.344 637.366 628.344 631.84C628.344 626.313 627.168 622.018 624.815 618.954C622.462 615.89 619.18 614.358 614.966 614.358C610.753 614.358 607.471 615.89 605.118 618.954C602.765 622.018 601.589 626.313 601.589 631.84C601.589 637.366 602.765 641.661 605.118 644.725C607.471 647.789 610.753 649.321 614.966 649.321ZM654.361 595.317V586.864H678.326V648.008H693.182V656.461H654.361V648.008H669.298V595.317H654.361ZM729.868 657.775C725.327 657.775 721.387 656.719 718.05 654.607C714.712 652.506 712.124 649.513 710.285 645.628C708.458 641.743 707.544 637.147 707.544 631.84C707.544 626.532 708.458 621.936 710.285 618.051C712.124 614.167 714.712 611.168 718.05 609.056C721.387 606.955 725.327 605.905 729.868 605.905C734.464 605.905 738.415 606.955 741.719 609.056C745.035 611.168 747.607 614.167 749.434 618.051C751.273 621.936 752.192 626.532 752.192 631.84C752.192 637.147 751.273 641.743 749.434 645.628C747.607 649.513 745.035 652.506 741.719 654.607C738.415 656.719 734.464 657.775 729.868 657.775ZM729.868 649.321C734.081 649.321 737.364 647.789 739.717 644.725C742.069 641.661 743.246 637.366 743.246 631.84C743.246 626.313 742.069 622.018 739.717 618.954C737.364 615.89 734.081 614.358 729.868 614.358C725.655 614.358 722.372 615.89 720.019 618.954C717.667 622.018 716.49 626.313 716.49 631.84C716.49 637.366 717.667 641.661 720.019 644.725C722.372 647.789 725.655 649.321 729.868 649.321ZM766.39 615.671V607.218H785.595V610.829H788.057C789.042 609.242 790.383 608.022 792.079 607.169C793.775 606.326 795.718 605.905 797.906 605.905C801.846 605.905 804.964 607.284 807.262 610.041C809.56 612.81 810.709 616.602 810.709 621.416V628.557H801.353V622.73C801.353 617.203 799.11 614.44 794.623 614.44C791.778 614.44 789.655 615.71 788.254 618.248C786.865 620.798 786.17 624.59 786.17 629.624V648.008H801.435V656.461H767.868V648.008H777.142V615.671H766.39Z" fill="white"/>
</g>
</g>
<g clip-path="url(#clip10_1_198)">
<g clip-path="url(#clip11_1_198)">
<path d="M214.136 694.269V702.102H209.845L208.891 698.697C207.71 697.561 205.894 696.994 203.442 696.994C200.989 696.994 199.091 697.312 197.747 697.947C196.412 698.583 195.744 699.432 195.744 700.495C195.744 701.567 196.244 702.57 197.243 703.506C198.242 704.432 199.264 705.122 200.308 705.577C201.353 706.031 203.215 706.712 205.894 707.62C208.573 708.528 210.767 709.732 212.474 711.23C214.172 712.729 215.022 714.704 215.022 717.157C215.022 720.426 213.832 722.91 211.452 724.609C209.064 726.316 206.339 727.17 203.278 727.17C200.208 727.17 197.574 726.784 195.376 726.012C193.169 725.24 191.589 724.468 190.635 723.696L189.273 722.538V715.249H193.36L194.791 719.473C194.836 719.609 195.199 719.836 195.881 720.154C198.015 721.244 200.149 721.789 202.284 721.789C204.418 721.789 206.053 721.457 207.188 720.794C208.323 720.14 208.891 719.209 208.891 718.001C208.891 716.802 208.255 715.658 206.984 714.568C205.712 713.478 203.591 712.488 200.622 711.598C197.642 710.717 195.145 709.423 193.129 707.715C191.103 706.017 190.09 704.032 190.09 701.762C190.09 698.356 191.285 695.799 193.673 694.092C196.053 692.393 199.127 691.544 202.897 691.544C204.759 691.544 206.62 691.771 208.482 692.225C210.344 692.68 211.752 693.134 212.706 693.588L214.136 694.269ZM277.418 721.789H283.139V725.876C281.368 726.738 279.37 727.17 277.145 727.17C274.92 727.17 273.376 726.702 272.513 725.767C271.65 724.84 271.151 723.469 271.014 721.652C270.424 722.333 269.743 723.015 268.971 723.696C268.199 724.377 266.914 725.126 265.115 725.944C263.326 726.761 261.455 727.17 259.503 727.17C255.96 727.17 253.304 726.18 251.533 724.2C249.762 722.229 248.876 719.541 248.876 716.135V696.926H243.154V692.838C244.925 691.976 246.978 691.544 249.312 691.544C251.655 691.544 253.236 692.098 254.053 693.206C254.871 694.323 255.279 696.017 255.279 698.288V713.751C255.279 716.43 255.72 718.428 256.601 719.745C257.491 721.062 259.094 721.72 261.41 721.72C263.726 721.72 265.701 721.28 267.336 720.399C268.971 719.509 270.197 718.587 271.014 717.633V696.926H265.293V692.838C267.064 691.976 269.116 691.544 271.45 691.544C273.794 691.544 275.374 692.098 276.191 693.206C277.009 694.323 277.418 696.017 277.418 698.288V721.789ZM342.593 704.419C342.593 708.233 341.13 711.298 338.206 713.614C335.272 715.93 331.739 717.088 327.607 717.088C325.336 717.088 323.179 716.702 321.136 715.93L318.002 721.584H331.217C336.076 721.584 339.596 722.515 341.775 724.377C343.955 726.239 345.045 728.964 345.045 732.551C345.045 736.139 343.478 739.181 340.345 741.679C337.211 744.177 332.829 745.425 327.198 745.425C321.567 745.425 317.298 744.336 314.392 742.156C311.486 739.976 310.032 737.22 310.032 733.886C310.032 730.544 311.667 728.146 314.937 726.693C313.03 726.057 312.076 724.695 312.076 722.606L312.348 720.903C314.937 716.952 316.504 714.523 317.049 713.614C314.097 711.253 312.621 708.174 312.621 704.378C312.621 700.59 314.097 697.502 317.049 695.114C320 692.734 323.52 691.544 327.607 691.544C330.195 691.544 332.693 692.089 335.1 693.179L347.02 691.612L346.816 697.539L339.936 696.926C341.707 699.06 342.593 701.558 342.593 704.419ZM316.027 733.164C316.027 735.253 316.994 736.924 318.929 738.178C320.854 739.422 323.565 740.044 327.062 740.044C330.559 740.044 333.342 739.386 335.413 738.069C337.475 736.752 338.506 734.935 338.506 732.619C338.506 728.896 336.121 727.034 331.353 727.034L319.228 727.102C317.094 728.282 316.027 730.303 316.027 733.164ZM327.607 711.98C330.422 711.98 332.625 711.23 334.214 709.732C335.804 708.233 336.598 706.439 336.598 704.35C336.598 702.261 335.804 700.445 334.214 698.901C332.625 697.357 330.413 696.585 327.58 696.585C324.737 696.585 322.543 697.343 320.999 698.86C319.455 700.386 318.683 702.202 318.683 704.31C318.683 706.426 319.469 708.233 321.04 709.732C322.602 711.23 324.791 711.98 327.607 711.98ZM406.01 704.419C406.01 708.233 404.544 711.298 401.61 713.614C398.685 715.93 395.157 717.088 391.024 717.088C388.754 717.088 386.597 716.702 384.553 715.93L381.42 721.584H394.635C399.494 721.584 403.013 722.515 405.193 724.377C407.373 726.239 408.463 728.964 408.463 732.551C408.463 736.139 406.896 739.181 403.763 741.679C400.629 744.177 396.247 745.425 390.616 745.425C384.985 745.425 380.716 744.336 377.81 742.156C374.903 739.976 373.45 737.22 373.45 733.886C373.45 730.544 375.085 728.146 378.355 726.693C376.447 726.057 375.494 724.695 375.494 722.606L375.766 720.903C378.355 716.952 379.921 714.523 380.466 713.614C377.514 711.253 376.039 708.174 376.039 704.378C376.039 700.59 377.514 697.502 380.466 695.114C383.418 692.734 386.937 691.544 391.024 691.544C393.613 691.544 396.111 692.089 398.517 693.179L410.438 691.612L410.234 697.539L403.354 696.926C405.125 699.06 406.01 701.558 406.01 704.419ZM379.444 733.164C379.444 735.253 380.407 736.924 382.333 738.178C384.267 739.422 386.983 740.044 390.48 740.044C393.976 740.044 396.755 739.386 398.817 738.069C400.888 736.752 401.923 734.935 401.923 732.619C401.923 728.896 399.539 727.034 394.771 727.034L382.646 727.102C380.512 728.282 379.444 730.303 379.444 733.164ZM391.024 711.98C393.84 711.98 396.042 711.23 397.632 709.732C399.221 708.233 400.016 706.439 400.016 704.35C400.016 702.261 399.221 700.445 397.632 698.901C396.042 697.357 393.826 696.585 390.984 696.585C388.15 696.585 385.961 697.343 384.417 698.86C382.873 700.386 382.101 702.202 382.101 704.31C382.101 706.426 382.882 708.233 384.444 709.732C386.016 711.23 388.209 711.98 391.024 711.98ZM455.655 727.102C450.523 727.102 446.359 725.635 443.162 722.701C439.956 719.777 438.353 715.499 438.353 709.868C438.353 704.237 439.988 699.773 443.257 696.476C446.527 693.188 450.341 691.544 454.701 691.544C465.055 691.544 470.232 697.675 470.232 709.936H444.96V710.277C444.96 713.501 446.095 716.226 448.366 718.451C450.637 720.676 453.725 721.789 457.63 721.789C459.31 721.789 460.9 721.593 462.398 721.203C463.897 720.821 464.987 720.426 465.668 720.017L466.622 719.473L468.597 723.015C468.461 723.105 468.27 723.251 468.025 723.451C467.771 723.66 467.235 723.991 466.417 724.445C465.6 724.899 464.714 725.308 463.761 725.671C461.354 726.625 458.652 727.102 455.655 727.102ZM463.897 705.577C463.67 702.761 462.753 700.613 461.145 699.133C459.528 697.661 457.439 696.926 454.878 696.926C452.308 696.926 450.183 697.639 448.502 699.064C446.822 700.499 445.732 702.67 445.233 705.577H463.897ZM524.522 694.269V702.102H520.23L519.277 698.697C518.096 697.561 516.28 696.994 513.827 696.994C511.375 696.994 509.481 697.312 508.146 697.947C506.802 698.583 506.13 699.432 506.13 700.495C506.13 701.567 506.63 702.57 507.629 703.506C508.628 704.432 509.649 705.122 510.694 705.577C511.738 706.031 513.6 706.712 516.28 707.62C518.959 708.528 521.152 709.732 522.86 711.23C524.558 712.729 525.407 714.704 525.407 717.157C525.407 720.426 524.218 722.91 521.838 724.609C519.449 726.316 516.725 727.17 513.664 727.17C510.594 727.17 507.96 726.784 505.762 726.012C503.555 725.24 501.975 724.468 501.021 723.696L499.659 722.538V715.249H503.746L505.176 719.473C505.222 719.609 505.585 719.836 506.266 720.154C508.401 721.244 510.535 721.789 512.669 721.789C514.804 721.789 516.438 721.457 517.574 720.794C518.709 720.14 519.277 719.209 519.277 718.001C519.277 716.802 518.641 715.658 517.369 714.568C516.098 713.478 513.977 712.488 511.007 711.598C508.028 710.717 505.531 709.423 503.514 707.715C501.489 706.017 500.476 704.032 500.476 701.762C500.476 698.356 501.671 695.799 504.059 694.092C506.439 692.393 509.513 691.544 513.282 691.544C515.144 691.544 517.006 691.771 518.868 692.225C520.73 692.68 522.138 693.134 523.091 693.588L524.522 694.269ZM564.848 711.503C564.848 715.408 565.438 718.065 566.619 719.473C567.799 720.88 569.593 721.584 572 721.584C574.407 721.584 576.382 721.221 577.926 720.494L579.289 723.9C579.107 724.127 578.844 724.422 578.498 724.786C578.162 725.149 577.313 725.635 575.951 726.243C574.588 726.861 573.09 727.17 571.455 727.17C567.323 727.17 564.121 726.003 561.85 723.669C559.58 721.325 558.444 717.906 558.444 713.41V697.743H554.834V693.724L561.374 687.185H564.848V692.362H576.291V697.743H564.848V711.503ZM624.028 723.491V726.421H606.113V723.491L611.835 721.244V696.926H606.113V692.838C607.884 691.976 609.942 691.544 612.285 691.544C614.619 691.544 616.195 692.098 617.012 693.206C617.83 694.323 618.238 696.017 618.238 698.288V721.244L624.028 723.491ZM618.511 683.711C617.466 684.755 616.195 685.277 614.696 685.277C613.198 685.277 611.926 684.755 610.882 683.711C609.837 682.666 609.315 681.395 609.315 679.896C609.315 678.397 609.837 677.126 610.882 676.081C611.926 675.037 613.198 674.515 614.696 674.515C616.195 674.515 617.466 675.037 618.511 676.081C619.555 677.126 620.077 678.397 620.077 679.896C620.077 681.395 619.555 682.666 618.511 683.711ZM682.269 722.225C678.954 725.521 674.776 727.17 669.735 727.17C664.695 727.17 660.517 725.521 657.202 722.225C653.887 718.937 652.229 714.659 652.229 709.391C652.229 704.123 653.887 699.832 657.202 696.517C660.517 693.202 664.695 691.544 669.735 691.544C674.776 691.544 678.954 693.202 682.269 696.517C685.584 699.832 687.242 704.123 687.242 709.391C687.242 714.659 685.584 718.937 682.269 722.225ZM661.902 718.478C663.945 720.685 666.557 721.789 669.735 721.789C672.914 721.789 675.525 720.685 677.569 718.478C679.612 716.28 680.634 713.319 680.634 709.595C680.634 705.872 679.599 702.829 677.528 700.468C675.466 698.106 672.869 696.926 669.735 696.926C666.602 696.926 664 698.106 661.929 700.468C659.867 702.829 658.837 705.872 658.837 709.595C658.837 713.319 659.858 716.28 661.902 718.478ZM757.185 723.491V726.421H739.27V723.491L744.719 721.244V704.963C744.719 702.284 744.279 700.286 743.398 698.969C742.508 697.652 740.905 696.994 738.589 696.994C734.865 696.994 731.527 698.47 728.576 701.421V721.244L734.366 723.491V726.421H716.451V723.491L722.173 721.244V696.926H716.451V692.838C718.222 691.976 720.243 691.544 722.513 691.544C724.784 691.544 726.341 692.044 727.186 693.043C728.022 694.042 728.485 695.54 728.576 697.539C729.211 696.721 730.165 695.79 731.437 694.746C734.116 692.611 737.181 691.544 740.632 691.544C744.084 691.544 746.695 692.53 748.466 694.501C750.237 696.481 751.123 699.173 751.123 702.579V721.244L757.185 723.491ZM809.84 694.269V702.102H805.549L804.595 698.697C803.414 697.561 801.598 696.994 799.146 696.994C796.693 696.994 794.8 697.312 793.465 697.947C792.12 698.583 791.448 699.432 791.448 700.495C791.448 701.567 791.948 702.57 792.947 703.506C793.946 704.432 794.968 705.122 796.012 705.577C797.057 706.031 798.919 706.712 801.598 707.62C804.277 708.528 806.471 709.732 808.178 711.23C809.876 712.729 810.726 714.704 810.726 717.157C810.726 720.426 809.536 722.91 807.156 724.609C804.768 726.316 802.043 727.17 798.982 727.17C795.912 727.17 793.278 726.784 791.08 726.012C788.873 725.24 787.293 724.468 786.34 723.696L784.977 722.538V715.249H789.064L790.495 719.473C790.54 719.609 790.903 719.836 791.585 720.154C793.719 721.244 795.853 721.789 797.988 721.789C800.122 721.789 801.757 721.457 802.892 720.794C804.027 720.14 804.595 719.209 804.595 718.001C804.595 716.802 803.959 715.658 802.688 714.568C801.416 713.478 799.296 712.488 796.326 711.598C793.347 710.717 790.849 709.423 788.833 707.715C786.807 706.017 785.795 704.032 785.795 701.762C785.795 698.356 786.989 695.799 789.378 694.092C791.757 692.393 794.832 691.544 798.601 691.544C800.463 691.544 802.324 691.771 804.186 692.225C806.048 692.68 807.456 693.134 808.41 693.588L809.84 694.269Z" fill="white"/>
</g>
</g>
</g>
</g>
<g clip-path="url(#clip12_1_198)">
<g clip-path="url(#clip13_1_198)">
<path d="M527.297 258.738C527.529 255.728 545.574 254.573 545.574 254.573C545.574 254.573 552.051 274.237 563.851 278.169C575.651 282.102 591.844 270.766 591.844 270.766C591.844 270.766 603.641 280.947 604.566 287.656C598.779 297.372 592.534 300.843 592.534 300.843C592.534 300.843 593.228 328.836 595.079 339.013C591.38 356.135 568.941 354.977 568.941 354.977L551.358 372.329C622.379 434.098 580.044 502.571 639.73 559.947C483.34 606.671 469.695 478.274 360.269 461.852C424.583 353.587 496.527 361.455 496.527 361.455C501.849 336.007 497.914 297.14 497.914 297.14C497.914 297.14 544.419 300.146 527.297 258.738Z" fill="white"/>
</g>
</g>
</g>
</g>
</g>
</g>
</g>
</g>
<defs>
<clipPath id="clip0_1_198">
<rect width="1000" height="1000" fill="white"/>
</clipPath>
<clipPath id="clip1_1_198">
<rect width="999.567" height="999.567" fill="white" transform="translate(0.215698 0.215698)"/>
</clipPath>
<clipPath id="clip2_1_198">
<rect width="999.567" height="999.567" fill="white" transform="translate(0.215698 0.215698)"/>
</clipPath>
<clipPath id="clip3_1_198">
<rect width="621.453" height="490.852" fill="white" transform="translate(189.273 254.573)"/>
</clipPath>
<clipPath id="clip4_1_198">
<rect width="621.453" height="490.852" fill="white" transform="translate(189.273 254.573)"/>
</clipPath>
<clipPath id="clip5_1_198">
<rect width="621.453" height="490.852" fill="white" transform="translate(189.273 254.573)"/>
</clipPath>
<clipPath id="clip6_1_198">
<rect width="621.453" height="158.562" fill="white" transform="translate(189.273 586.864)"/>
</clipPath>
<clipPath id="clip7_1_198">
<rect width="621.453" height="158.562" fill="white" transform="translate(189.273 586.864)"/>
</clipPath>
<clipPath id="clip8_1_198">
<rect width="621.453" height="70.9107" fill="white" transform="translate(189.273 586.864)"/>
</clipPath>
<clipPath id="clip9_1_198">
<rect width="621.453" height="70.9107" fill="white" transform="translate(189.273 586.864)"/>
</clipPath>
<clipPath id="clip10_1_198">
<rect width="621.453" height="70.9107" fill="white" transform="translate(189.273 674.515)"/>
</clipPath>
<clipPath id="clip11_1_198">
<rect width="621.453" height="70.9107" fill="white" transform="translate(189.273 674.515)"/>
</clipPath>
<clipPath id="clip12_1_198">
<rect width="279.461" height="315.55" fill="white" transform="translate(360.269 254.573)"/>
</clipPath>
<clipPath id="clip13_1_198">
<rect width="279.461" height="315.55" fill="white" transform="translate(360.269 254.573)"/>
</clipPath>
</defs>
</svg>
