<svg className="tops" viewBox="0 0 811 1230" fill="none" xmlns="http://www.w3.org/2000/svg">
<path d="M466 1175C520.8 1193.4 652.167 1132.67 711 1100C712.465 1088.85 715.6 1073.47 717.5 1058C721.652 1024.2 723.342 988.076 724 981.5C725.5 966.5 711 940.5 699 917.5C697 896 685.5 889.5 680.5 871.5C679 852.5 676.5 844 669.5 837C662.5 822.5 654.5 827 646.5 824.5C641.5 815 625 778 619 772.5C619.5 770 621.5 767.5 622 765C622.5 762.5 627 751 608.5 752C590 751.5 591.5 748.5 594 744.5C601 743.5 608 747 608.5 737C609 731.5 595 723 595 721C595 719 606.5 715.5 602.5 704.5C603 693.5 594 665 595 650.5C599 635.5 609 606 607.5 591C616.5 587 616 576.5 616 571C616 565.5 614.5 569.5 613 559C619 554.5 621.5 549.5 622.5 547.5C623.5 545.5 631 544.5 631.5 539C632 533.5 632.5 528 632.5 522.5C632.5 517 637 518 637 513.5C637 509 638.5 505 638.5 498.5C638.5 492 641.5 497 643.5 492C645.5 487 647 474.5 649 469C651 463.5 657.5 466.5 661 460.5C662.371 458.15 662.036 450.123 660 441C656.838 426.828 650.629 408.601 648.5 394C645.058 370.398 646.452 369.039 665.521 350.454L666.5 349.5C687.5 334.5 743.5 312 761.5 304.5C779.5 297 798 293.5 805.5 293.5C807.5 295 805.5 301.5 807.5 305C808.333 303.667 810.5 299.4 810.5 295C810.5 289.5 801 204 784.5 152C773 99 725.5 55 706 46.5C695.5 39 611 30 606.5 29.5C592.5 12 587.5 8 583 6C576.5 0.5 570 5.5 563 8C553.5 5.5 537.667 3.5 528.5 0C523.667 4.33333 512.5 19.7 506.5 46.5C488.5 77.5 427 146.5 401 167C373 182 306.5 207 263 211.5C228.5 204 197 175.5 177.5 159.5C172.667 164 161.9 174.3 157.5 179.5C152 186 134.5 229.5 127.5 253C120.5 276.5 105 279 95.0001 288.5C85.0001 298 71.5001 309.5 67.0001 314.5C62.5001 319.5 47.5001 327 34.5001 334.5C21.5001 342 7.00007 376.5 6.00007 380.5C5.00007 384.5 1.00007 397 1.00007 406.5C1.00007 416 -1 429 4.00007 454.5C4.00007 480 32.3181 539.711 35.5001 553.5C37.0001 560 40.1798 592.935 43.0001 624.5C45.3451 650.746 50.2731 676.236 50.5001 683.5C51.0001 699.5 46.0001 796.252 46.0001 809C46.0001 822 50.0001 879 48.5001 903C47.0001 927 54.5001 968.5 54.5001 972C54.5001 974.8 53.1667 1001.83 52.5001 1015C52.5001 1037.5 68.4001 1069.7 68.0001 1074.5C67.5001 1080.5 62.5001 1081.69 62.5001 1092C62.5001 1114.5 63.8334 1119.5 62.5001 1128.5C58.0001 1146.67 62.5001 1206.5 116.5 1211.5C175.5 1242.5 244 1226 294.5 1215C346 1208.5 342.5 1184.5 466 1175Z" fill="currentColor"/>
</svg>
